<?xml version="1.0" encoding="UTF-8" standalone="no"?>
<!-- Created with Inkscape (http://www.inkscape.org/) -->

<svg
   xmlns:dc="http://purl.org/dc/elements/1.1/"
   xmlns:cc="http://creativecommons.org/ns#"
   xmlns:rdf="http://www.w3.org/1999/02/22-rdf-syntax-ns#"
   xmlns:svg="http://www.w3.org/2000/svg"
   xmlns="http://www.w3.org/2000/svg"
   xmlns:sodipodi="http://sodipodi.sourceforge.net/DTD/sodipodi-0.dtd"
   xmlns:inkscape="http://www.inkscape.org/namespaces/inkscape"
   width="20"
   height="20"
   id="svg3894"
   version="1.1"
   inkscape:version="0.48.2 r9819"
   sodipodi:docname="balanser.svg">
  <defs
     id="defs3896">
    <inkscape:perspective
       sodipodi:type="inkscape:persp3d"
       inkscape:vp_x="-54.94745 : 17.047527 : 1"
       inkscape:vp_y="0 : 1000 : 0"
       inkscape:vp_z="1.1759073 : 16.346721 : 1"
       inkscape:persp3d-origin="-44.94745 : 13.714193 : 1"
       id="perspective2994" />
    <inkscape:perspective
       sodipodi:type="inkscape:persp3d"
       inkscape:vp_x="-24.532692 : 10.377606 : 1"
       inkscape:vp_y="0 : 791.82733 : 0"
       inkscape:vp_z="-8.6961466 : 10.377606 : 1"
       inkscape:persp3d-origin="-16.614419 : 7.7381813 : 1"
       id="perspective2994-1" />
  </defs>
  <sodipodi:namedview
     id="base"
     pagecolor="#ffffff"
     bordercolor="#666666"
     borderopacity="1.0"
     inkscape:pageopacity="0.0"
     inkscape:pageshadow="2"
     inkscape:zoom="22.627417"
     inkscape:cx="2.0516162"
     inkscape:cy="8.7241289"
     inkscape:current-layer="layer1"
     showgrid="false"
     inkscape:grid-bbox="true"
     inkscape:document-units="px"
     inkscape:window-width="1366"
     inkscape:window-height="706"
     inkscape:window-x="-8"
     inkscape:window-y="-8"
     inkscape:window-maximized="1"
     showguides="true"
     inkscape:guide-bbox="true">
    <inkscape:grid
       type="xygrid"
       id="grid4600"
       empspacing="5"
       visible="true"
       enabled="true"
       snapvisiblegridlinesonly="true" />
    <sodipodi:guide
       orientation="0,1"
       position="13.952407,24.337076"
       id="guide2992" />
  </sodipodi:namedview>
  <metadata
     id="metadata3899">
    <rdf:RDF>
      <cc:Work
         rdf:about="">
        <dc:format>image/svg+xml</dc:format>
        <dc:type
           rdf:resource="http://purl.org/dc/dcmitype/StillImage" />
        <dc:title />
      </cc:Work>
    </rdf:RDF>
  </metadata>
  <g
     id="layer1"
     inkscape:label="Layer 1"
     inkscape:groupmode="layer"
     transform="translate(0,4)">
    <path
       style="fill:none;stroke:#000000;stroke-width:1px;stroke-linecap:butt;stroke-linejoin:miter;stroke-opacity:1"
       d="M -25.323262,13.32668 z"
       id="path3895"
       inkscape:connector-curvature="0"
       transform="translate(0,-4)" />
    <path
       sodipodi:type="arc"
       style="fill:#58bc39;fill-opacity:1;stroke:#58bc39;stroke-width:1.10000002;stroke-miterlimit:4;stroke-opacity:1;stroke-dasharray:none"
       id="path2992"
       sodipodi:cx="10.142563"
       sodipodi:cy="10.918097"
       sodipodi:rx="4.6182914"
       sodipodi:ry="4.6182914"
       d="m 14.760854,10.918097 a 4.6182914,4.6182914 0 1 1 -9.2365825,0 4.6182914,4.6182914 0 1 1 9.2365825,0 z"
       transform="translate(-0.26516504,-5.767767)" />
    <path
       sodipodi:type="arc"
       style="fill:#58bc39;fill-opacity:1;stroke:#58bc39;stroke-width:1.10000002;stroke-miterlimit:4;stroke-opacity:1;stroke-dasharray:none"
       id="path2992-1"
       sodipodi:cx="10.142563"
       sodipodi:cy="10.918097"
       sodipodi:rx="4.6182914"
       sodipodi:ry="4.6182914"
       d="m 14.760854,10.918097 a 4.6182914,4.6182914 0 1 1 -9.2365825,0 4.6182914,4.6182914 0 1 1 9.2365825,0 z"
       transform="matrix(0.36294885,0,0,0.36294885,-0.30037724,8.1702992)" />
    <path
       sodipodi:type="arc"
       style="fill:#58bc39;fill-opacity:1;stroke:#58bc39;stroke-width:1.10000002;stroke-miterlimit:4;stroke-opacity:1;stroke-dasharray:none"
       id="path2992-7"
       sodipodi:cx="10.142563"
       sodipodi:cy="10.918097"
       sodipodi:rx="4.6182914"
       sodipodi:ry="4.6182914"
       d="m 14.760854,10.918097 a 4.6182914,4.6182914 0 1 1 -9.2365825,0 4.6182914,4.6182914 0 1 1 9.2365825,0 z"
       transform="matrix(0.30736721,0,0,0.30736721,0.2854602,-3.0006025)" />
    <path
       sodipodi:type="arc"
       style="fill:#58bc39;fill-opacity:1;stroke:#58bc39;stroke-width:1.10000002;stroke-miterlimit:4;stroke-opacity:1;stroke-dasharray:none"
       id="path2992-7-4"
       sodipodi:cx="10.142563"
       sodipodi:cy="10.918097"
       sodipodi:rx="4.6182914"
       sodipodi:ry="4.6182914"
       d="m 14.760854,10.918097 a 4.6182914,4.6182914 0 1 1 -9.2365825,0 4.6182914,4.6182914 0 1 1 9.2365825,0 z"
       transform="matrix(0.23040801,0,0,0.23040801,4.8667225,-5.0329758)" />
    <path
       sodipodi:type="arc"
       style="fill:#58bc39;fill-opacity:1;stroke:#58bc39;stroke-width:1.10000002;stroke-miterlimit:4;stroke-opacity:1;stroke-dasharray:none"
       id="path2992-7-0"
       sodipodi:cx="10.142563"
       sodipodi:cy="10.918097"
       sodipodi:rx="4.6182914"
       sodipodi:ry="4.6182914"
       d="m 14.760854,10.918097 a 4.6182914,4.6182914 0 1 1 -9.2365825,0 4.6182914,4.6182914 0 1 1 9.2365825,0 z"
       transform="matrix(0.30736721,0,0,0.30736721,9.3010715,-5.0335344)" />
    <path
       sodipodi:type="arc"
       style="fill:#58bc39;fill-opacity:1;stroke:#58bc39;stroke-width:1.10000002;stroke-miterlimit:4;stroke-opacity:1;stroke-dasharray:none"
       id="path2992-7-9"
       sodipodi:cx="10.142563"
       sodipodi:cy="10.918097"
       sodipodi:rx="4.6182914"
       sodipodi:ry="4.6182914"
       d="m 14.760854,10.918097 a 4.6182914,4.6182914 0 1 1 -9.2365825,0 4.6182914,4.6182914 0 1 1 9.2365825,0 z"
       transform="matrix(0.30736721,0,0,0.30736721,14.074043,-4.3706218)" />
    <path
       sodipodi:type="arc"
       style="fill:#58bc39;fill-opacity:1;stroke:#58bc39;stroke-width:1.10000002;stroke-miterlimit:4;stroke-opacity:1;stroke-dasharray:none"
       id="path2992-7-48"
       sodipodi:cx="10.142563"
       sodipodi:cy="10.918097"
       sodipodi:rx="4.6182914"
       sodipodi:ry="4.6182914"
       d="m 14.760854,10.918097 a 4.6182914,4.6182914 0 1 1 -9.2365825,0 4.6182914,4.6182914 0 1 1 9.2365825,0 z"
       transform="matrix(0.30736721,0,0,0.30736721,13.366936,7.5618052)" />
    <path
       sodipodi:type="arc"
       style="fill:#58bc39;fill-opacity:1;stroke:#58bc39;stroke-width:1.10000002;stroke-miterlimit:4;stroke-opacity:1;stroke-dasharray:none"
       id="path2992-7-8"
       sodipodi:cx="10.142563"
       sodipodi:cy="10.918097"
       sodipodi:rx="4.6182914"
       sodipodi:ry="4.6182914"
       d="m 14.760854,10.918097 a 4.6182914,4.6182914 0 1 1 -9.2365825,0 4.6182914,4.6182914 0 1 1 9.2365825,0 z"
       transform="matrix(0.30736721,0,0,0.30736721,13.897266,0.00460142)" />
    <path
       sodipodi:type="arc"
       style="fill:#58bc39;fill-opacity:1;stroke:#58bc39;stroke-width:1.10000002;stroke-miterlimit:4;stroke-opacity:1;stroke-dasharray:none"
       id="path2992-7-2"
       sodipodi:cx="10.142563"
       sodipodi:cy="10.918097"
       sodipodi:rx="4.6182914"
       sodipodi:ry="4.6182914"
       d="m 14.760854,10.918097 a 4.6182914,4.6182914 0 1 1 -9.2365825,0 4.6182914,4.6182914 0 1 1 9.2365825,0 z"
       transform="matrix(0.30736721,0,0,0.30736721,7.0913629,9.1969897)" />
    <path
       sodipodi:type="arc"
       style="fill:#58bc39;fill-opacity:1;stroke:#58bc39;stroke-width:1.10000002;stroke-miterlimit:4;stroke-opacity:1;stroke-dasharray:none"
       id="path2992-7-45"
       sodipodi:cx="10.142563"
       sodipodi:cy="10.918097"
       sodipodi:rx="4.6182914"
       sodipodi:ry="4.6182914"
       d="m 14.760854,10.918097 a 4.6182914,4.6182914 0 1 1 -9.2365825,0 4.6182914,4.6182914 0 1 1 9.2365825,0 z"
       transform="matrix(0.30736721,0,0,0.30736721,-0.51003504,3.6727179)" />
  </g>
</svg>
