<?xml version="1.0" encoding="UTF-8" standalone="no"?>
<!-- Created with Inkscape (http://www.inkscape.org/) -->

<svg
   xmlns:dc="http://purl.org/dc/elements/1.1/"
   xmlns:cc="http://creativecommons.org/ns#"
   xmlns:rdf="http://www.w3.org/1999/02/22-rdf-syntax-ns#"
   xmlns:svg="http://www.w3.org/2000/svg"
   xmlns="http://www.w3.org/2000/svg"
   xmlns:sodipodi="http://sodipodi.sourceforge.net/DTD/sodipodi-0.dtd"
   xmlns:inkscape="http://www.inkscape.org/namespaces/inkscape"
   width="20"
   height="20"
   id="svg3894"
   version="1.1"
   inkscape:version="0.48.2 r9819"
   sodipodi:docname="dns.svg">
  <defs
     id="defs3896">
    <inkscape:perspective
       sodipodi:type="inkscape:persp3d"
       inkscape:vp_x="-54.94745 : 17.047527 : 1"
       inkscape:vp_y="0 : 1000 : 0"
       inkscape:vp_z="1.1759073 : 16.346721 : 1"
       inkscape:persp3d-origin="-44.94745 : 13.714193 : 1"
       id="perspective2994" />
    <inkscape:perspective
       sodipodi:type="inkscape:persp3d"
       inkscape:vp_x="-24.532692 : 10.377606 : 1"
       inkscape:vp_y="0 : 791.82733 : 0"
       inkscape:vp_z="-8.6961466 : 10.377606 : 1"
       inkscape:persp3d-origin="-16.614419 : 7.7381813 : 1"
       id="perspective2994-1" />
  </defs>
  <sodipodi:namedview
     id="base"
     pagecolor="#ffffff"
     bordercolor="#666666"
     borderopacity="1.0"
     inkscape:pageopacity="0.0"
     inkscape:pageshadow="2"
     inkscape:zoom="22.627417"
     inkscape:cx="2.0516162"
     inkscape:cy="10.491896"
     inkscape:current-layer="layer1"
     showgrid="false"
     inkscape:grid-bbox="true"
     inkscape:document-units="px"
     inkscape:window-width="1366"
     inkscape:window-height="706"
     inkscape:window-x="-8"
     inkscape:window-y="-8"
     inkscape:window-maximized="1"
     showguides="true"
     inkscape:guide-bbox="true">
    <inkscape:grid
       type="xygrid"
       id="grid4600"
       empspacing="5"
       visible="true"
       enabled="true"
       snapvisiblegridlinesonly="true" />
    <sodipodi:guide
       orientation="0,1"
       position="13.952407,24.337076"
       id="guide2992" />
  </sodipodi:namedview>
  <metadata
     id="metadata3899">
    <rdf:RDF>
      <cc:Work
         rdf:about="">
        <dc:format>image/svg+xml</dc:format>
        <dc:type
           rdf:resource="http://purl.org/dc/dcmitype/StillImage" />
        <dc:title></dc:title>
      </cc:Work>
    </rdf:RDF>
  </metadata>
  <g
     id="layer1"
     inkscape:label="Layer 1"
     inkscape:groupmode="layer"
     transform="translate(0,4)">
    <path
       style="fill:none;stroke:#000000;stroke-width:1px;stroke-linecap:butt;stroke-linejoin:miter;stroke-opacity:1"
       d="M -25.367456,9.7244276 z"
       id="path3895"
       inkscape:connector-curvature="0" />
    <path
       sodipodi:type="arc"
       style="fill:#58bc39;fill-opacity:1;stroke:none"
       id="path3967"
       sodipodi:cx="9.0377083"
       sodipodi:cy="4.3773594"
       sodipodi:rx="1.1269515"
       sodipodi:ry="1.1269515"
       d="m 10.16466,4.3773594 a 1.1269515,1.1269515 0 1 1 -2.2539032,0 1.1269515,1.1269515 0 1 1 2.2539032,0 z"
       transform="matrix(1.2096505,0,0,1.2096505,-0.93197495,-6.1398576)" />
    <path
       transform="matrix(1.2096505,0,0,1.2096505,-9.4587662,-2.6917192)"
       sodipodi:type="arc"
       style="fill:#58bc39;fill-opacity:1;stroke:none"
       id="path3967-1"
       sodipodi:cx="9.0377083"
       sodipodi:cy="4.3773594"
       sodipodi:rx="1.1269515"
       sodipodi:ry="1.1269515"
       d="m 10.16466,4.3773594 a 1.1269515,1.1269515 0 1 1 -2.2539032,0 1.1269515,1.1269515 0 1 1 2.2539032,0 z" />
    <path
       transform="matrix(1.2096505,0,0,1.2096505,-4.70087,0.08817527)"
       sodipodi:type="arc"
       style="fill:#58bc39;fill-opacity:1;stroke:none"
       id="path3967-2"
       sodipodi:cx="9.0377083"
       sodipodi:cy="4.3773594"
       sodipodi:rx="1.1269515"
       sodipodi:ry="1.1269515"
       d="m 10.16466,4.3773594 a 1.1269515,1.1269515 0 1 1 -2.2539032,0 1.1269515,1.1269515 0 1 1 2.2539032,0 z" />
    <path
       transform="matrix(1.2096505,0,0,1.2096505,2.035028,0.14163468)"
       sodipodi:type="arc"
       style="fill:#58bc39;fill-opacity:1;stroke:none"
       id="path3967-6"
       sodipodi:cx="9.0377083"
       sodipodi:cy="4.3773594"
       sodipodi:rx="1.1269515"
       sodipodi:ry="1.1269515"
       d="m 10.16466,4.3773594 a 1.1269515,1.1269515 0 1 1 -2.2539032,0 1.1269515,1.1269515 0 1 1 2.2539032,0 z" />
    <path
       transform="matrix(1.2096505,0,0,1.2096505,7.7017358,-2.6382595)"
       sodipodi:type="arc"
       style="fill:#58bc39;fill-opacity:1;stroke:none"
       id="path3967-0"
       sodipodi:cx="9.0377083"
       sodipodi:cy="4.3773594"
       sodipodi:rx="1.1269515"
       sodipodi:ry="1.1269515"
       d="m 10.16466,4.3773594 a 1.1269515,1.1269515 0 1 1 -2.2539032,0 1.1269515,1.1269515 0 1 1 2.2539032,0 z" />
    <path
       transform="matrix(1.2096505,0,0,1.2096505,-0.58448787,7.1982898)"
       sodipodi:type="arc"
       style="fill:#58bc39;fill-opacity:1;stroke:none"
       id="path3967-9"
       sodipodi:cx="9.0377083"
       sodipodi:cy="4.3773594"
       sodipodi:rx="1.1269515"
       sodipodi:ry="1.1269515"
       d="m 10.16466,4.3773594 a 1.1269515,1.1269515 0 1 1 -2.2539032,0 1.1269515,1.1269515 0 1 1 2.2539032,0 z" />
    <path
       transform="matrix(1.2096505,0,0,1.2096505,5.8841125,7.0379112)"
       sodipodi:type="arc"
       style="fill:#58bc39;fill-opacity:1;stroke:none"
       id="path3967-46"
       sodipodi:cx="9.0377083"
       sodipodi:cy="4.3773594"
       sodipodi:rx="1.1269515"
       sodipodi:ry="1.1269515"
       d="m 10.16466,4.3773594 a 1.1269515,1.1269515 0 1 1 -2.2539032,0 1.1269515,1.1269515 0 1 1 2.2539032,0 z" />
    <path
       style="fill:none;stroke:#58bc39;stroke-width:1.00055635px;stroke-linecap:butt;stroke-linejoin:miter;stroke-opacity:1"
       d="M 3.5075362,1.3179561 7.6191743,0.03967166"
       id="path4050"
       inkscape:connector-curvature="0" />
    <path
       style="fill:none;stroke:#58bc39;stroke-width:1.01084673px;stroke-linecap:butt;stroke-linejoin:miter;stroke-opacity:1"
       d="M 8.8550382,1.2371678 C 7.7064606,3.2756674 7.6710827,3.3280306 7.6710827,3.3280306"
       id="path4052"
       inkscape:connector-curvature="0" />
    <path
       style="fill:none;stroke:#58bc39;stroke-width:1.09113777px;stroke-linecap:butt;stroke-linejoin:miter;stroke-opacity:1"
       d="M 12.424974,0.05716633 16.379172,1.4073805"
       id="path4070"
       inkscape:connector-curvature="0" />
    <path
       style="fill:none;stroke:#58bc39;stroke-width:1.20965064px;stroke-linecap:butt;stroke-linejoin:miter;stroke-opacity:1"
       d="m 11.256793,1.5876255 0.694975,1.6572448"
       id="path4072"
       inkscape:connector-curvature="0" />
    <path
       style="fill:#58bc39;fill-opacity:1;stroke:#58bc39;stroke-width:1.20965064px;stroke-linecap:butt;stroke-linejoin:miter;stroke-opacity:1"
       d="M 12.058687,7.7889284 10.615278,10.248065"
       id="path4074"
       inkscape:connector-curvature="0" />
    <path
       style="fill:none;stroke:#58bc39;stroke-width:1.20965064px;stroke-linecap:butt;stroke-linejoin:miter;stroke-opacity:1"
       d="m 14.303985,7.4681714 1.336489,2.6195166"
       id="path4076"
       inkscape:connector-curvature="0" />
  </g>
</svg>
